<?xml version="1.0" encoding="utf-8"?>
<!-- Generator: Adobe Illustrator 15.1.0, SVG Export Plug-In . SVG Version: 6.00 Build 0)  -->
<!DOCTYPE svg PUBLIC "-//W3C//DTD SVG 1.1//EN" "http://www.w3.org/Graphics/SVG/1.1/DTD/svg11.dtd">
<svg version="1.1" id="Layer_1" xmlns="http://www.w3.org/2000/svg" xmlns:xlink="http://www.w3.org/1999/xlink" x="0px" y="0px"
	 width="173px" height="173px" viewBox="0 0 173 173" enable-background="new 0 0 173 173" xml:space="preserve">
<path id="BLUE2_2_" fill="#0088AF" d="M173,86.5c0,64.082-22.413,86.5-86.5,86.5C22.414,173,0,150.582,0,86.5
	C0,22.416,22.414,0,86.5,0C150.587,0,173,22.416,173,86.5z"/>
<path fill="#FFFFFF" d="M126.113,60.947c-5.221,1.843-5.957,1.597-3.377-1.167c1.902-1.965,4.176-5.527,4.176-6.571
	c0-0.184-0.921,0.123-1.965,0.676c-1.105,0.614-3.563,1.535-5.404,2.088l-3.316,1.044l-3.01-2.026
	c-1.658-1.105-3.992-2.334-5.221-2.702c-3.133-0.86-7.923-0.737-10.747,0.245c-7.679,2.764-12.529,9.889-11.977,17.688l0.184,3.009
	l-3.071-0.368C71.207,71.45,61.442,66.66,53.151,58.614l-4.053-3.991l-1.044,2.947c-2.211,6.572-0.798,13.512,3.808,18.18
	c2.457,2.579,1.904,2.947-2.334,1.412c-1.474-0.491-2.764-0.859-2.887-0.676c-0.43,0.431,1.044,6.019,2.211,8.229
	c1.597,3.071,4.852,6.08,8.414,7.861l3.009,1.412l-3.562,0.062c-3.439,0-3.562,0.062-3.193,1.353
	c1.228,3.992,6.08,8.229,11.484,10.072l3.808,1.289l-3.316,1.965c-4.914,2.826-10.687,4.422-16.459,4.545
	c-2.764,0.063-5.036,0.308-5.036,0.492c0,0.613,7.493,4.053,11.853,5.403c13.082,3.992,28.62,2.272,40.291-4.545
	c8.291-4.853,16.582-14.494,20.451-23.829c2.088-4.974,4.176-14.063,4.176-18.423c0-2.825,0.185-3.194,3.623-6.571
	c2.026-1.966,3.932-4.115,4.299-4.729C129.309,59.903,129.246,59.903,126.113,60.947z"/>
</svg>
